[img]http://a.imageshack.us/img20/2169/95b93499fb0b924324c4d2f.png[/img]
[code]

Plot:
A splinter group of Roman soldiers fight for their lives
behind enemy lines after their legion is decimated in a devastating
guerrilla attack.
 
http://www.imdb.com/title/tt1020558/


Complete name                    : Centurion.LiMiTED.DVDRip.XviD-TA.avi
Format                           : AVI
Format/Info                      : Audio Video Interleave
File size                        : 708 MiB
Duration                         : 1h 33mn
Overall bit rate                 : 1 059 Kbps
Writing application              : Nandub v1.0rc2
Writing library                  : VirtualDub build 32661/release

Video
ID                               : 0
Format                           : MPEG-4 Visual
Format profile                   : AdvancedSimple@L5
Format settings, BVOP            : Yes
Format settings, QPel            : No
Format settings, GMC             : No warppoints
Format settings, Matrix          : Default (H.263)
Muxing mode                      : Packed bitstream
Codec ID                         : XVID
Codec ID/Hint                    : XviD
Duration                         : 1h 33mn
Bit rate                         : 920 Kbps
Width                            : 640 pixels
Height                           : 256 pixels
Display aspect ratio             : 2.500
Frame rate                       : 25.000 fps
Resolution                       : 24 bits
Colorimetry                      : 4:2:0
Scan type                        : Progressive
Bits/(Pixel*Frame)               : 0.225
Stream size                      : 615 MiB (87%)
Writing library                  : XviD 1.2.1 (UTC 2008-12-04)

Audio
ID                               : 1
Format                           : MPEG Audio
Format version                   : Version 1
Format profile                   : Layer 3
Codec ID                         : 55
Codec ID/Hint                    : MP3
Duration                         : 1h 33mn
Bit rate mode                    : Variable
Bit rate                         : 127 Kbps
Nominal bit rate                 : 128 Kbps
Channel(s)                       : 2 channels
Sampling rate                    : 48.0 KHz
Resolution                       : 16 bits
Stream size                      : 84.8 MiB (12%)
Alignment                        : Aligned on interleaves
Interleave, duration             : 24 ms (0.60 video frame)
Interleave, preload duration     : 145 ms
Writing library                  : LAME3.90.
Encoding settings                : -m j -V 4 -q 2 -lowpass 17.6 --abr 128



NEEDS: We are looking for Audio Syncers and any other Exclusive CAM sources. Both Audio and Video
All deotting done by \"dedots crew\" find us on irc Efnet channel #ddcrew

Contact us: ta_rg@hushmail.com

Greetz: IMAGiNE - PrisM - KINGDOM - LU - SLUGGER - Relizlab - ELEKTRI4KA
and all those that contribute... Spanks
[/code]
Screens:
[img]http://a.imageshack.us/img580/3705/rs8uux.png[/img]
[img]http://a.imageshack.us/img294/1082/jjwys7.png[/img]
[img]http://a.imageshack.us/img809/3336/6p5ngn.png[/img]
[img]http://a.imageshack.us/img534/9065/1w308.png[/img]
